<svg width="14" height="14" viewBox="0 0 14 14" fill="none" xmlns="http://www.w3.org/2000/svg">
<g clip-path="url(#clip0_278_6324)">
<path d="M13.4502 8.78355L12.4268 7.90855C12.4752 7.61167 12.5002 7.30854 12.5002 7.00542C12.5002 6.70229 12.4752 6.39917 12.4268 6.10229L13.4502 5.22729C13.5274 5.16121 13.5826 5.07319 13.6086 4.97495C13.6346 4.8767 13.63 4.77288 13.5955 4.67729L13.5814 4.63667C13.2997 3.84921 12.8778 3.11923 12.3361 2.48198L12.308 2.44917C12.2423 2.37191 12.1547 2.31637 12.0568 2.28987C11.9589 2.26337 11.8553 2.26716 11.7596 2.30073L10.4893 2.75229C10.0205 2.36792 9.49707 2.0648 8.93145 1.8523L8.68614 0.52417C8.66763 0.424236 8.61915 0.332299 8.54715 0.260573C8.47514 0.188847 8.38302 0.140727 8.28301 0.122607L8.24082 0.114795C7.42676 -0.0320801 6.57051 -0.0320801 5.75645 0.114795L5.71426 0.122607C5.61426 0.140727 5.52213 0.188847 5.45013 0.260573C5.37812 0.332299 5.32964 0.424236 5.31114 0.52417L5.06426 1.85854C4.50315 2.07109 3.98062 2.37405 3.51739 2.75542L2.2377 2.30073C2.14202 2.26689 2.03831 2.26297 1.94035 2.28948C1.84239 2.316 1.75481 2.37169 1.68926 2.44917L1.66114 2.48198C1.12011 3.11968 0.698286 3.84954 0.415823 4.63667L0.401761 4.67729C0.331448 4.87261 0.389261 5.09136 0.547073 5.22729L1.58301 6.11167C1.53457 6.40542 1.51114 6.70542 1.51114 7.00386C1.51114 7.30386 1.53457 7.60386 1.58301 7.89605L0.547073 8.78042C0.469879 8.8465 0.41463 8.93452 0.388673 9.03277C0.362716 9.13101 0.367281 9.23483 0.401761 9.33042L0.415823 9.37105C0.698636 10.1585 1.11739 10.8851 1.66114 11.5257L1.68926 11.5585C1.75497 11.6358 1.84255 11.6913 1.94045 11.7178C2.03836 11.7443 2.14199 11.7406 2.2377 11.707L3.51739 11.2523C3.98301 11.6351 4.50332 11.9382 5.06426 12.1492L5.31114 13.4835C5.32964 13.5835 5.37812 13.6754 5.45013 13.7471C5.52213 13.8189 5.61426 13.867 5.71426 13.8851L5.75645 13.8929C6.57799 14.0406 7.41928 14.0406 8.24082 13.8929L8.28301 13.8851C8.38302 13.867 8.47514 13.8189 8.54715 13.7471C8.61915 13.6754 8.66763 13.5835 8.68614 13.4835L8.93145 12.1554C9.49684 11.9435 10.0232 11.6394 10.4893 11.2554L11.7596 11.707C11.8553 11.7408 11.959 11.7447 12.0569 11.7182C12.1549 11.6917 12.2425 11.636 12.308 11.5585L12.3361 11.5257C12.8799 10.8835 13.2986 10.1585 13.5814 9.37105L13.5955 9.33042C13.6658 9.13823 13.608 8.91948 13.4502 8.78355ZM11.3174 6.28667C11.3564 6.52261 11.3768 6.76479 11.3768 7.00698C11.3768 7.24917 11.3564 7.49136 11.3174 7.72729L11.2143 8.35386L12.3814 9.35229C12.2045 9.75993 11.9812 10.1458 11.7158 10.5023L10.2658 9.98823L9.7752 10.3914C9.40176 10.6976 8.98614 10.9382 8.53614 11.107L7.94082 11.3304L7.66114 12.846C7.21984 12.896 6.77431 12.896 6.33301 12.846L6.05332 11.3273L5.4627 11.1007C5.01739 10.932 4.60332 10.6914 4.23301 10.3867L3.74239 9.98198L2.28301 10.5007C2.01739 10.1429 1.79551 9.75698 1.61739 9.35073L2.79707 8.34292L2.69551 7.71792C2.65801 7.48511 2.6377 7.24448 2.6377 7.00698C2.6377 6.76792 2.65645 6.52886 2.69551 6.29604L2.79707 5.67104L1.61739 4.66323C1.79395 4.25542 2.01739 3.87104 2.28301 3.51323L3.74239 4.03198L4.23301 3.6273C4.60332 3.32261 5.01739 3.08198 5.4627 2.91323L6.05489 2.68979L6.33457 1.17104C6.77364 1.12104 7.22207 1.12104 7.6627 1.17104L7.94239 2.68667L8.5377 2.91011C8.98614 3.07886 9.40332 3.31948 9.77676 3.62573L10.2674 4.02886L11.7174 3.51479C11.983 3.87261 12.2049 4.25854 12.383 4.66479L11.2158 5.66323L11.3174 6.28667ZM7.0002 4.10073C5.48145 4.10073 4.2502 5.33198 4.2502 6.85073C4.2502 8.36948 5.48145 9.60073 7.0002 9.60073C8.51895 9.60073 9.7502 8.36948 9.7502 6.85073C9.7502 5.33198 8.51895 4.10073 7.0002 4.10073ZM8.2377 8.08823C8.07539 8.25101 7.8825 8.38009 7.67012 8.46804C7.45774 8.556 7.23007 8.60109 7.0002 8.60073C6.53301 8.60073 6.09395 8.41792 5.7627 8.08823C5.59992 7.92592 5.47084 7.73303 5.38289 7.52065C5.29494 7.30828 5.24984 7.0806 5.2502 6.85073C5.2502 6.38354 5.43301 5.94448 5.7627 5.61323C6.09395 5.28198 6.53301 5.10073 7.0002 5.10073C7.46739 5.10073 7.90645 5.28198 8.2377 5.61323C8.40047 5.77554 8.52955 5.96843 8.61751 6.18081C8.70546 6.39319 8.75056 6.62086 8.7502 6.85073C8.7502 7.31792 8.56739 7.75698 8.2377 8.08823Z" fill="white"/>
</g>
<defs>
<clipPath id="clip0_278_6324">
<rect width="14" height="14" fill="white" transform="translate(0 0.00463867)"/>
</clipPath>
</defs>
</svg>
